<svg xmlns="http://www.w3.org/2000/svg" viewBox="0 0 512 512" role="img" aria-label="VowPic">
  <rect width="512" height="512" rx="112" fill="#17191f"/>
  <path d="M151 330c36-66 55-110 105-110s69 44 105 110c-34 42-176 42-210 0z" fill="#f8e7d1"/>
  <path d="M256 93c53 0 96 43 96 96s-43 96-96 96-96-43-96-96 43-96 96-96z" fill="#ffffff"/>
  <path d="M194 188c21-35 40-52 62-52s41 17 62 52c-17 35-38 52-62 52s-45-17-62-52z" fill="#d6a45f"/>
  <path d="M167 354h178c-20 28-49 43-89 43s-69-15-89-43z" fill="#ffffff"/>
  <path d="M256 121l18 42 45 4-34 30 10 44-39-23-39 23 10-44-34-30 45-4 18-42z" fill="#17191f"/>
</svg>
